<svg fill="#fff" xmlns="http://www.w3.org/2000/svg" width="24px" height="24px" viewBox="-12 -12 300 300">
    <path d="m287 27l-29.6 148-8.4 42c-0.65 3.25-2.68 15.49-4.16 17.52-2.12 2.89-12.2 5.35-15.84 6.51l-39.28 12.96s-28.72 9.66-28.72 9.66l-12 3.77-29 9.28c-3.21 0.2-7.9-1.77-11-2.88l-23-9.01-48-18.39-29-11.42 11-56h48c-0.35 4.32-4.14 19.01-2.81 21.78 1.22 2.53 5.33 3.85 7.81 4.8 0 0 22 8.37 22 8.37l23 8.73c2.47 0.91 7.69 3.18 10 3.39 3.31 0.3 16.03-4.29 20-5.57l37-12.17c3.31-1.1 14.58-4.5 16.72-6.17 3.71-2.89 4.02-9.82 4.94-14.16l7.34-38h-188l6-33 3.16-12.43 7.84-1.57h181l6-29h-189l9-47h237z" opacity="1" />
</svg>
