<svg  fill="#fff" xmlns="http://www.w3.org/2000/svg" width="20px" height="20px" viewBox="-12 -12 128 128">
<path d="m96 3.8154e-6l-1.8032 19.892s-4.6097 50.595-4.6097 50.595-1.7297 19.46-1.7297 19.46l-0.94703 7.1092-4.7481 1.8465-12.108 3.4033-15.568 4.346-6.4865 1.6216-7.9005-2.0281-16.497-4.6486-10.197-2.8195-4.3157-1.7211-0.94703-7.1092-1.7297-19.46s-4.6097-50.595-4.6097-50.595l-1.8032-19.892h96zm-77.405 20.324s0.79135 9.5135 0.79135 9.5135l1.0119 12.541s1.2238 13.405 1.2238 13.405h41.513l-1.2238 10.811c-0.16 1.5827 0.0346 3.3124-1.1589 4.5708-1.0076 1.0681-3.5243 1.5006-4.9686 1.9157-1.4659 0.41945-6.4 1.7816-7.6584 1.8076-1.6086 0.0346-5.773-1.2151-7.4768-1.6476-1.5438-0.38919-4.7481-1.0119-5.7946-2.1708-1.0162-1.1157-1.2108-7.3038-1.5568-9.2325h-11.243l1.2584 12.973 0.89513 5.3795 9.0897 3.0184 14.703 3.8011 12.973-3.3903 7.7838-2.1406 3.0314-1.3492 0.60973-3.1568s0.69622-7.7838 0.69622-7.7838l1.3578-15.135s0.79135-9.946 0.79135-9.946h-43.243l-0.86486-12.541h45.405l0.86487-11.243h-58.811z" />
</svg>
